<svg xmlns="http://www.w3.org/2000/svg" xmlns:xlink="http://www.w3.org/1999/xlink" width="450" zoomAndPan="magnify" viewBox="0 0 337.5 337.500003" height="450" preserveAspectRatio="xMidYMid meet" version="1.0"><defs><clipPath id="116f6c759c"><path d="M 0 0 L 336.25 0 L 336.25 336.25 L 0 336.25 Z M 0 0 " clip-rule="nonzero"/></clipPath><clipPath id="5581ec6a43"><path d="M 84.847656 90 L 247 90 L 247 252.0625 L 84.847656 252.0625 Z M 84.847656 90 " clip-rule="nonzero"/></clipPath><clipPath id="b52c69d375"><path d="M 89 84.3125 L 251.101562 84.3125 L 251.101562 247 L 89 247 Z M 89 84.3125 " clip-rule="nonzero"/></clipPath></defs><g clip-path="url(#116f6c759c)"><path fill="#000000" d="M 187.921875 336.25 L 148.328125 336.25 C 146.359375 336.25 144.785156 334.871094 144.390625 333.101562 L 137.296875 300.792969 C 122.722656 297.445312 108.734375 291.734375 95.929688 283.65625 L 68.15625 301.582031 C 66.582031 302.566406 64.609375 302.371094 63.230469 300.992188 L 35.261719 272.824219 C 33.882812 271.640625 33.683594 269.472656 34.667969 267.898438 L 52.398438 240.125 C 44.519531 227.320312 38.609375 213.53125 35.261719 198.757812 L 3.152344 191.863281 C 1.183594 191.46875 0 189.695312 0 187.921875 L 0 148.328125 C 0 146.359375 1.183594 144.785156 3.152344 144.390625 L 35.261719 137.296875 C 38.609375 122.722656 44.519531 108.734375 52.398438 95.929688 L 34.667969 68.15625 C 33.683594 66.582031 33.882812 64.609375 35.261719 63.230469 L 63.230469 35.261719 C 64.609375 33.882812 66.582031 33.683594 68.15625 34.667969 L 95.929688 52.398438 C 108.734375 44.519531 122.722656 38.609375 137.296875 35.261719 L 144.390625 3.152344 C 144.785156 1.378906 146.359375 0 148.328125 0 L 187.921875 0 C 189.894531 0 191.46875 1.378906 191.863281 3.152344 L 198.757812 35.261719 C 213.53125 38.804688 227.515625 44.519531 240.320312 52.59375 L 268.09375 34.667969 C 269.671875 33.683594 271.640625 33.882812 273.019531 35.261719 L 300.992188 63.230469 C 302.371094 64.609375 302.566406 66.582031 301.582031 68.15625 L 283.65625 95.929688 C 291.734375 108.734375 297.445312 122.722656 300.992188 137.296875 L 333.101562 144.390625 C 334.871094 144.785156 336.25 146.359375 336.25 148.328125 L 336.25 187.921875 C 336.25 189.894531 334.871094 191.46875 333.101562 191.863281 L 300.992188 198.953125 C 297.445312 213.53125 291.734375 227.515625 283.65625 240.320312 L 301.582031 268.09375 C 302.566406 269.671875 302.371094 271.640625 300.992188 273.019531 L 273.019531 300.992188 C 271.640625 302.371094 269.671875 302.566406 268.09375 301.582031 L 240.320312 283.855469 C 227.515625 291.734375 213.53125 297.644531 198.757812 300.992188 L 191.863281 333.101562 C 191.46875 334.871094 189.695312 336.25 187.921875 336.25 Z M 168.027344 264.351562 C 115.039062 264.351562 71.898438 221.214844 71.898438 168.027344 C 71.898438 115.039062 115.039062 71.898438 168.027344 71.898438 C 221.214844 71.898438 264.351562 115.039062 264.351562 168.027344 C 264.351562 221.214844 221.214844 264.351562 168.027344 264.351562 Z M 168.027344 264.351562 " fill-opacity="1" fill-rule="evenodd"/></g><path fill="#000000" d="M 112.871094 168.027344 L 133.949219 189.105469 C 138.875 194.03125 135.328125 202.5 128.238281 202.5 C 126.265625 202.5 124.296875 201.710938 122.722656 200.136719 L 96.324219 173.738281 C 93.171875 170.589844 93.171875 165.664062 96.324219 162.511719 L 122.722656 135.917969 C 124.691406 133.949219 127.449219 133.160156 130.207031 133.949219 C 136.117188 135.523438 138.28125 142.617188 133.949219 147.148438 Z M 223.183594 168.027344 L 202.300781 147.148438 C 200.332031 145.175781 199.347656 142.417969 200.136719 139.660156 C 201.710938 133.949219 209 131.585938 213.332031 135.917969 L 239.925781 162.511719 C 243.078125 165.664062 243.078125 170.589844 239.925781 173.738281 L 213.332031 200.136719 C 211.953125 201.710938 209.984375 202.5 207.816406 202.5 C 200.921875 202.5 197.378906 194.03125 202.300781 189.105469 Z M 223.183594 168.027344 " fill-opacity="1" fill-rule="evenodd"/><path fill="#000000" d="M 150.300781 206.636719 C 144.390625 206.636719 140.449219 200.136719 143.40625 194.816406 L 178.863281 133.359375 C 180.4375 130.996094 182.800781 129.417969 185.757812 129.417969 C 191.664062 129.617188 195.800781 135.917969 192.652344 141.238281 L 157.191406 202.695312 C 155.8125 205.058594 153.054688 206.636719 150.300781 206.636719 Z M 150.300781 206.636719 " fill-opacity="1" fill-rule="evenodd"/><g clip-path="url(#5581ec6a43)"><path fill="#a40053" d="M 246.210938 171.175781 C 246.210938 172.5 246.179688 173.824219 246.113281 175.144531 C 246.050781 176.46875 245.953125 177.789062 245.824219 179.105469 C 245.695312 180.421875 245.53125 181.734375 245.339844 183.042969 C 245.144531 184.355469 244.917969 185.65625 244.660156 186.957031 C 244.402344 188.253906 244.113281 189.546875 243.792969 190.828125 C 243.472656 192.113281 243.121094 193.390625 242.738281 194.65625 C 242.355469 195.921875 241.941406 197.179688 241.496094 198.425781 C 241.050781 199.671875 240.574219 200.90625 240.070312 202.128906 C 239.566406 203.351562 239.03125 204.5625 238.464844 205.757812 C 237.902344 206.953125 237.308594 208.136719 236.6875 209.304688 C 236.0625 210.472656 235.414062 211.625 234.734375 212.757812 C 234.054688 213.894531 233.347656 215.011719 232.617188 216.113281 C 231.882812 217.214844 231.121094 218.296875 230.335938 219.359375 C 229.550781 220.421875 228.738281 221.464844 227.898438 222.488281 C 227.0625 223.511719 226.199219 224.511719 225.3125 225.492188 C 224.425781 226.476562 223.515625 227.433594 222.582031 228.367188 C 221.648438 229.304688 220.695312 230.21875 219.714844 231.105469 C 218.738281 231.996094 217.738281 232.859375 216.71875 233.699219 C 215.695312 234.539062 214.65625 235.351562 213.597656 236.140625 C 212.535156 236.929688 211.457031 237.691406 210.359375 238.425781 C 209.261719 239.164062 208.144531 239.871094 207.011719 240.550781 C 205.882812 241.230469 204.734375 241.882812 203.566406 242.507812 C 202.402344 243.132812 201.226562 243.726562 200.03125 244.292969 C 198.835938 244.859375 197.632812 245.394531 196.410156 245.902344 C 195.191406 246.410156 193.960938 246.882812 192.71875 247.332031 C 191.472656 247.777344 190.222656 248.191406 188.957031 248.574219 C 187.695312 248.960938 186.421875 249.3125 185.140625 249.636719 C 183.859375 249.957031 182.574219 250.246094 181.277344 250.503906 C 179.984375 250.761719 178.683594 250.988281 177.375 251.183594 C 176.070312 251.378906 174.761719 251.539062 173.445312 251.667969 C 172.132812 251.800781 170.816406 251.894531 169.496094 251.960938 C 168.179688 252.027344 166.859375 252.058594 165.539062 252.058594 C 164.21875 252.058594 162.898438 252.027344 161.582031 251.960938 C 160.261719 251.894531 158.945312 251.800781 157.632812 251.667969 C 156.320312 251.539062 155.007812 251.378906 153.703125 251.183594 C 152.398438 250.988281 151.097656 250.761719 149.800781 250.503906 C 148.507812 250.246094 147.21875 249.957031 145.9375 249.636719 C 144.65625 249.3125 143.386719 248.960938 142.121094 248.574219 C 140.859375 248.191406 139.605469 247.777344 138.363281 247.332031 C 137.117188 246.882812 135.886719 246.410156 134.667969 245.902344 C 133.449219 245.394531 132.242188 244.859375 131.046875 244.292969 C 129.855469 243.726562 128.675781 243.132812 127.511719 242.507812 C 126.347656 241.882812 125.199219 241.230469 124.066406 240.550781 C 122.933594 239.871094 121.820312 239.164062 120.71875 238.425781 C 119.621094 237.691406 118.542969 236.929688 117.484375 236.140625 C 116.421875 235.351562 115.382812 234.539062 114.363281 233.699219 C 113.339844 232.859375 112.34375 231.996094 111.363281 231.105469 C 110.386719 230.21875 109.429688 229.304688 108.496094 228.367188 C 107.5625 227.433594 106.652344 226.476562 105.765625 225.492188 C 104.878906 224.511719 104.015625 223.511719 103.179688 222.488281 C 102.339844 221.464844 101.53125 220.421875 100.742188 219.359375 C 99.957031 218.296875 99.195312 217.214844 98.464844 216.113281 C 97.730469 215.011719 97.023438 213.894531 96.34375 212.757812 C 95.667969 211.625 95.015625 210.472656 94.394531 209.304688 C 93.769531 208.136719 93.175781 206.953125 92.613281 205.757812 C 92.046875 204.5625 91.511719 203.351562 91.007812 202.128906 C 90.503906 200.90625 90.027344 199.671875 89.582031 198.425781 C 89.136719 197.179688 88.722656 195.921875 88.339844 194.65625 C 87.957031 193.390625 87.605469 192.113281 87.285156 190.828125 C 86.964844 189.546875 86.675781 188.253906 86.417969 186.957031 C 86.160156 185.65625 85.933594 184.355469 85.742188 183.042969 C 85.546875 181.734375 85.386719 180.421875 85.257812 179.105469 C 85.125 177.789062 85.03125 176.46875 84.964844 175.144531 C 84.898438 173.824219 84.867188 172.5 84.867188 171.175781 C 84.867188 169.851562 84.898438 168.53125 84.964844 167.207031 C 85.03125 165.886719 85.125 164.566406 85.257812 163.25 C 85.386719 161.933594 85.546875 160.617188 85.742188 159.308594 C 85.933594 158 86.160156 156.695312 86.417969 155.398438 C 86.675781 154.097656 86.964844 152.808594 87.285156 151.523438 C 87.605469 150.242188 87.957031 148.964844 88.339844 147.699219 C 88.722656 146.429688 89.136719 145.175781 89.582031 143.929688 C 90.027344 142.683594 90.503906 141.449219 91.007812 140.226562 C 91.511719 139 92.046875 137.792969 92.613281 136.59375 C 93.175781 135.398438 93.769531 134.21875 94.394531 133.050781 C 95.015625 131.882812 95.667969 130.730469 96.34375 129.59375 C 97.023438 128.460938 97.730469 127.34375 98.464844 126.242188 C 99.195312 125.140625 99.957031 124.058594 100.742188 122.996094 C 101.53125 121.933594 102.339844 120.890625 103.179688 119.867188 C 104.015625 118.84375 104.878906 117.839844 105.765625 116.859375 C 106.652344 115.878906 107.5625 114.921875 108.496094 113.984375 C 109.429688 113.050781 110.386719 112.136719 111.363281 111.246094 C 112.34375 110.359375 113.339844 109.496094 114.363281 108.65625 C 115.382812 107.816406 116.421875 107 117.484375 106.210938 C 118.542969 105.421875 119.621094 104.660156 120.71875 103.925781 C 121.820312 103.191406 122.933594 102.484375 124.066406 101.800781 C 125.199219 101.121094 126.347656 100.46875 127.511719 99.84375 C 128.675781 99.222656 129.855469 98.625 131.046875 98.0625 C 132.242188 97.496094 133.449219 96.957031 134.667969 96.453125 C 135.886719 95.945312 137.117188 95.46875 138.363281 95.023438 C 139.605469 94.578125 140.859375 94.164062 142.121094 93.777344 C 143.386719 93.394531 144.65625 93.039062 145.9375 92.71875 C 147.21875 92.398438 148.507812 92.109375 149.800781 91.847656 C 151.097656 91.589844 152.398438 91.363281 153.703125 91.171875 C 155.007812 90.976562 156.320312 90.8125 157.632812 90.683594 C 158.945312 90.554688 160.261719 90.457031 161.582031 90.394531 C 162.898438 90.328125 164.21875 90.296875 165.539062 90.296875 C 166.859375 90.296875 168.179688 90.328125 169.496094 90.394531 C 170.816406 90.457031 172.132812 90.554688 173.445312 90.683594 C 174.761719 90.8125 176.070312 90.976562 177.375 91.171875 C 178.683594 91.363281 179.984375 91.589844 181.277344 91.847656 C 182.574219 92.109375 183.859375 92.398438 185.140625 92.71875 C 186.421875 93.039062 187.695312 93.394531 188.957031 93.777344 C 190.222656 94.164062 191.472656 94.578125 192.71875 95.023438 C 193.960938 95.46875 195.191406 95.945312 196.410156 96.453125 C 197.632812 96.957031 198.835938 97.496094 200.03125 98.0625 C 201.226562 98.625 202.402344 99.222656 203.566406 99.84375 C 204.734375 100.46875 205.882812 101.121094 207.011719 101.800781 C 208.144531 102.484375 209.261719 103.191406 210.359375 103.925781 C 211.457031 104.660156 212.535156 105.421875 213.597656 106.210938 C 214.65625 107 215.695312 107.816406 216.71875 108.65625 C 217.738281 109.496094 218.738281 110.359375 219.714844 111.246094 C 220.695312 112.136719 221.648438 113.050781 222.582031 113.984375 C 223.515625 114.921875 224.425781 115.878906 225.3125 116.859375 C 226.199219 117.839844 227.0625 118.84375 227.898438 119.867188 C 228.738281 120.890625 229.550781 121.933594 230.335938 122.996094 C 231.121094 124.058594 231.882812 125.140625 232.617188 126.242188 C 233.347656 127.34375 234.054688 128.460938 234.734375 129.59375 C 235.414062 130.730469 236.0625 131.882812 236.6875 133.050781 C 237.308594 134.21875 237.902344 135.398438 238.464844 136.59375 C 239.03125 137.792969 239.566406 139 240.070312 140.226562 C 240.574219 141.449219 241.050781 142.683594 241.496094 143.929688 C 241.941406 145.175781 242.355469 146.429688 242.738281 147.699219 C 243.121094 148.964844 243.472656 150.242188 243.792969 151.523438 C 244.113281 152.808594 244.402344 154.097656 244.660156 155.398438 C 244.917969 156.695312 245.144531 158 245.339844 159.308594 C 245.53125 160.617188 245.695312 161.933594 245.824219 163.25 C 245.953125 164.566406 246.050781 165.886719 246.113281 167.207031 C 246.179688 168.53125 246.210938 169.851562 246.210938 171.175781 Z M 246.210938 171.175781 " fill-opacity="1" fill-rule="nonzero"/></g><g clip-path="url(#b52c69d375)"><path fill="#ff0081" d="M 251.082031 165.191406 C 251.082031 166.515625 251.050781 167.835938 250.984375 169.160156 C 250.921875 170.480469 250.824219 171.800781 250.695312 173.117188 C 250.566406 174.4375 250.402344 175.75 250.210938 177.058594 C 250.015625 178.367188 249.789062 179.671875 249.53125 180.96875 C 249.277344 182.269531 248.988281 183.558594 248.664062 184.84375 C 248.34375 186.128906 247.992188 187.402344 247.609375 188.667969 C 247.226562 189.9375 246.8125 191.191406 246.367188 192.4375 C 245.921875 193.683594 245.449219 194.921875 244.941406 196.144531 C 244.4375 197.367188 243.902344 198.574219 243.335938 199.773438 C 242.773438 200.96875 242.179688 202.152344 241.558594 203.316406 C 240.933594 204.484375 240.285156 205.636719 239.605469 206.773438 C 238.925781 207.90625 238.222656 209.027344 237.488281 210.125 C 236.753906 211.226562 235.992188 212.308594 235.207031 213.371094 C 234.421875 214.433594 233.609375 215.476562 232.773438 216.5 C 231.933594 217.523438 231.070312 218.527344 230.183594 219.507812 C 229.296875 220.488281 228.386719 221.445312 227.453125 222.382812 C 226.519531 223.320312 225.566406 224.230469 224.585938 225.121094 C 223.609375 226.007812 222.609375 226.875 221.589844 227.714844 C 220.570312 228.554688 219.527344 229.367188 218.46875 230.15625 C 217.40625 230.945312 216.328125 231.707031 215.230469 232.441406 C 214.132812 233.175781 213.015625 233.886719 211.886719 234.566406 C 210.753906 235.246094 209.605469 235.898438 208.441406 236.523438 C 207.273438 237.144531 206.097656 237.742188 204.902344 238.308594 C 203.710938 238.871094 202.503906 239.410156 201.28125 239.914062 C 200.0625 240.421875 198.832031 240.898438 197.589844 241.34375 C 196.34375 241.789062 195.09375 242.207031 193.828125 242.589844 C 192.566406 242.972656 191.292969 243.328125 190.011719 243.648438 C 188.730469 243.96875 187.445312 244.261719 186.148438 244.519531 C 184.855469 244.777344 183.554688 245.003906 182.25 245.195312 C 180.941406 245.390625 179.632812 245.554688 178.320312 245.683594 C 177.003906 245.8125 175.6875 245.910156 174.371094 245.976562 C 173.050781 246.039062 171.730469 246.074219 170.410156 246.074219 C 169.089844 246.074219 167.769531 246.039062 166.453125 245.976562 C 165.132812 245.910156 163.816406 245.8125 162.503906 245.683594 C 161.191406 245.554688 159.878906 245.390625 158.574219 245.195312 C 157.269531 245.003906 155.96875 244.777344 154.671875 244.519531 C 153.378906 244.261719 152.089844 243.96875 150.808594 243.648438 C 149.527344 243.328125 148.257812 242.972656 146.992188 242.589844 C 145.730469 242.207031 144.476562 241.789062 143.234375 241.34375 C 141.992188 240.898438 140.757812 240.421875 139.539062 239.914062 C 138.320312 239.410156 137.113281 238.871094 135.917969 238.308594 C 134.726562 237.742188 133.546875 237.144531 132.382812 236.523438 C 131.21875 235.898438 130.070312 235.246094 128.9375 234.566406 C 127.804688 233.886719 126.691406 233.175781 125.59375 232.441406 C 124.496094 231.707031 123.414062 230.945312 122.355469 230.15625 C 121.292969 229.367188 120.253906 228.554688 119.234375 227.714844 C 118.210938 226.875 117.214844 226.007812 116.234375 225.121094 C 115.257812 224.230469 114.300781 223.320312 113.367188 222.382812 C 112.433594 221.445312 111.523438 220.488281 110.636719 219.507812 C 109.75 218.527344 108.886719 217.523438 108.050781 216.5 C 107.214844 215.476562 106.402344 214.433594 105.613281 213.371094 C 104.828125 212.308594 104.066406 211.226562 103.335938 210.125 C 102.601562 209.027344 101.894531 207.90625 101.214844 206.773438 C 100.539062 205.636719 99.886719 204.484375 99.265625 203.316406 C 98.640625 202.152344 98.050781 200.96875 97.484375 199.773438 C 96.921875 198.574219 96.386719 197.367188 95.878906 196.144531 C 95.375 194.921875 94.898438 193.683594 94.453125 192.4375 C 94.011719 191.191406 93.597656 189.9375 93.210938 188.667969 C 92.828125 187.402344 92.476562 186.128906 92.15625 184.84375 C 91.835938 183.558594 91.546875 182.269531 91.289062 180.96875 C 91.03125 179.671875 90.804688 178.367188 90.613281 177.058594 C 90.417969 175.75 90.257812 174.4375 90.128906 173.117188 C 90 171.800781 89.902344 170.480469 89.835938 169.160156 C 89.769531 167.835938 89.738281 166.515625 89.738281 165.191406 C 89.738281 163.867188 89.769531 162.542969 89.835938 161.222656 C 89.902344 159.898438 90 158.582031 90.128906 157.261719 C 90.257812 155.945312 90.417969 154.632812 90.613281 153.324219 C 90.804688 152.015625 91.03125 150.710938 91.289062 149.410156 C 91.546875 148.113281 91.835938 146.820312 92.15625 145.539062 C 92.476562 144.253906 92.828125 142.980469 93.210938 141.710938 C 93.597656 140.445312 94.011719 139.1875 94.453125 137.941406 C 94.898438 136.695312 95.375 135.460938 95.878906 134.238281 C 96.386719 133.015625 96.921875 131.804688 97.484375 130.609375 C 98.050781 129.414062 98.640625 128.230469 99.265625 127.0625 C 99.886719 125.894531 100.539062 124.746094 101.214844 123.609375 C 101.894531 122.472656 102.601562 121.355469 103.335938 120.253906 C 104.066406 119.15625 104.828125 118.074219 105.613281 117.007812 C 106.402344 115.945312 107.214844 114.902344 108.050781 113.878906 C 108.886719 112.855469 109.75 111.855469 110.636719 110.875 C 111.523438 109.894531 112.433594 108.933594 113.367188 108 C 114.300781 107.0625 115.257812 106.148438 116.234375 105.261719 C 117.214844 104.371094 118.210938 103.507812 119.234375 102.667969 C 120.253906 101.828125 121.292969 101.015625 122.355469 100.226562 C 123.414062 99.4375 124.496094 98.675781 125.59375 97.941406 C 126.691406 97.203125 127.804688 96.496094 128.9375 95.816406 C 130.070312 95.136719 131.21875 94.484375 132.382812 93.859375 C 133.546875 93.234375 134.726562 92.640625 135.917969 92.074219 C 137.113281 91.507812 138.320312 90.972656 139.539062 90.464844 C 140.757812 89.960938 141.992188 89.484375 143.234375 89.039062 C 144.476562 88.589844 145.730469 88.175781 146.992188 87.792969 C 148.257812 87.40625 149.527344 87.054688 150.808594 86.734375 C 152.089844 86.410156 153.378906 86.121094 154.671875 85.863281 C 155.96875 85.605469 157.269531 85.378906 158.574219 85.183594 C 159.878906 84.992188 161.191406 84.828125 162.503906 84.699219 C 163.816406 84.570312 165.132812 84.472656 166.453125 84.40625 C 167.769531 84.339844 169.089844 84.308594 170.410156 84.308594 C 171.730469 84.308594 173.050781 84.339844 174.371094 84.40625 C 175.6875 84.472656 177.003906 84.570312 178.320312 84.699219 C 179.632812 84.828125 180.941406 84.992188 182.25 85.183594 C 183.554688 85.378906 184.855469 85.605469 186.148438 85.863281 C 187.445312 86.121094 188.730469 86.410156 190.011719 86.734375 C 191.292969 87.054688 192.566406 87.40625 193.828125 87.792969 C 195.09375 88.175781 196.34375 88.589844 197.589844 89.039062 C 198.832031 89.484375 200.0625 89.960938 201.28125 90.464844 C 202.503906 90.972656 203.710938 91.507812 204.902344 92.074219 C 206.097656 92.640625 207.273438 93.234375 208.441406 93.859375 C 209.605469 94.484375 210.753906 95.136719 211.886719 95.816406 C 213.015625 96.496094 214.132812 97.203125 215.230469 97.941406 C 216.328125 98.675781 217.40625 99.4375 218.46875 100.226562 C 219.527344 101.015625 220.570312 101.828125 221.589844 102.667969 C 222.609375 103.507812 223.609375 104.371094 224.585938 105.261719 C 225.566406 106.148438 226.519531 107.0625 227.453125 108 C 228.386719 108.933594 229.296875 109.894531 230.183594 110.875 C 231.070312 111.855469 231.933594 112.855469 232.773438 113.878906 C 233.609375 114.902344 234.421875 115.945312 235.207031 117.007812 C 235.992188 118.074219 236.753906 119.15625 237.488281 120.253906 C 238.222656 121.355469 238.925781 122.472656 239.605469 123.609375 C 240.285156 124.746094 240.933594 125.894531 241.558594 127.0625 C 242.179688 128.230469 242.773438 129.414062 243.335938 130.609375 C 243.902344 131.804688 244.4375 133.015625 244.941406 134.238281 C 245.449219 135.460938 245.921875 136.695312 246.367188 137.941406 C 246.8125 139.1875 247.226562 140.445312 247.609375 141.710938 C 247.992188 142.980469 248.34375 144.253906 248.664062 145.539062 C 248.988281 146.820312 249.277344 148.113281 249.53125 149.410156 C 249.789062 150.710938 250.015625 152.015625 250.210938 153.324219 C 250.402344 154.632812 250.566406 155.945312 250.695312 157.261719 C 250.824219 158.582031 250.921875 159.898438 250.984375 161.222656 C 251.050781 162.542969 251.082031 163.867188 251.082031 165.191406 Z M 251.082031 165.191406 " fill-opacity="1" fill-rule="nonzero"/></g><path fill="#ffffff" d="M 117.371094 165.191406 L 149.125 192.300781 C 150.6875 193.636719 150.6875 195.804688 149.125 197.136719 C 147.5625 198.476562 145.019531 198.476562 143.457031 197.136719 L 108.964844 167.691406 C 108.160156 167.003906 107.769531 166.09375 107.792969 165.191406 C 107.769531 164.289062 108.160156 163.378906 108.964844 162.6875 L 143.457031 133.242188 C 145.019531 131.90625 147.5625 131.90625 149.125 133.242188 C 150.6875 134.578125 150.6875 136.746094 149.125 138.082031 Z M 117.371094 165.191406 " fill-opacity="1" fill-rule="evenodd"/><path fill="#ffffff" d="M 223.449219 165.519531 L 191.699219 192.898438 C 190.132812 194.246094 190.132812 196.4375 191.699219 197.785156 C 193.261719 199.132812 195.800781 199.132812 197.367188 197.785156 L 231.855469 168.046875 C 232.664062 167.347656 233.054688 166.429688 233.027344 165.519531 C 233.054688 164.605469 232.664062 163.6875 231.855469 162.992188 L 197.367188 133.253906 C 195.800781 131.902344 193.261719 131.902344 191.699219 133.253906 C 190.132812 134.601562 190.132812 136.789062 191.699219 138.140625 Z M 223.449219 165.519531 " fill-opacity="1" fill-rule="evenodd"/><path fill="#ffffff" d="M 180.503906 131.464844 C 178.367188 130.890625 176.167969 132.160156 175.59375 134.304688 L 159.640625 194 C 159.066406 196.140625 160.339844 198.347656 162.476562 198.921875 C 164.609375 199.496094 166.8125 198.21875 167.382812 196.078125 L 183.335938 136.382812 C 183.910156 134.242188 182.636719 132.039062 180.503906 131.464844 Z M 180.503906 131.464844 " fill-opacity="1" fill-rule="evenodd"/></svg>