<svg xmlns="http://www.w3.org/2000/svg" xmlns:xlink="http://www.w3.org/1999/xlink" width="333" zoomAndPan="magnify" viewBox="0 0 249.75 253.499997" height="338" preserveAspectRatio="xMidYMid meet" version="1.0"><defs><clipPath id="8c8e786c55"><path d="M 133.160156 20.726562 L 202.023438 20.726562 L 202.023438 89.589844 L 133.160156 89.589844 Z M 133.160156 20.726562 " clip-rule="nonzero"/></clipPath><clipPath id="1c728e82a5"><path d="M 0.121094 233.59375 L 78.839844 233.59375 L 78.839844 252.238281 L 0.121094 252.238281 Z M 0.121094 233.59375 " clip-rule="nonzero"/></clipPath><clipPath id="b3329c997f"><path d="M 85.195312 233.59375 L 164 233.59375 L 164 252.238281 L 85.195312 252.238281 Z M 85.195312 233.59375 " clip-rule="nonzero"/></clipPath><clipPath id="cbaf8a13cc"><path d="M 170.675781 233.59375 L 249.378906 233.59375 L 249.378906 252.238281 L 170.675781 252.238281 Z M 170.675781 233.59375 " clip-rule="nonzero"/></clipPath></defs><g clip-path="url(#8c8e786c55)"><path fill="#000000" d="M 154.351562 33.019531 C 154.007812 33.480469 153.355469 33.574219 152.894531 33.226562 C 152.441406 32.878906 152.347656 32.222656 152.695312 31.757812 C 153.667969 30.464844 154.785156 29.210938 155.984375 28.097656 C 156.40625 27.703125 157.058594 27.730469 157.445312 28.15625 C 157.832031 28.578125 157.808594 29.238281 157.390625 29.628906 C 156.273438 30.667969 155.277344 31.777344 154.351562 33.019531 Z M 160.566406 27.101562 C 160.089844 27.421875 159.445312 27.292969 159.132812 26.808594 C 158.816406 26.328125 158.945312 25.679688 159.421875 25.359375 C 160.613281 24.5625 161.808594 23.882812 163.101562 23.28125 C 163.621094 23.039062 164.238281 23.269531 164.476562 23.792969 C 164.71875 24.316406 164.492188 24.9375 163.96875 25.183594 C 162.804688 25.726562 161.636719 26.382812 160.566406 27.101562 Z M 166.855469 24.046875 C 166.308594 24.21875 165.726562 23.917969 165.550781 23.371094 C 165.378906 22.816406 165.675781 22.230469 166.21875 22.054688 C 167.746094 21.5625 169.355469 21.191406 170.953125 20.980469 C 171.519531 20.910156 172.042969 21.3125 172.113281 21.878906 C 172.1875 22.453125 171.789062 22.980469 171.222656 23.050781 C 169.75 23.246094 168.261719 23.59375 166.855469 24.046875 Z M 174.605469 22.832031 C 174.027344 22.832031 173.566406 22.359375 173.566406 21.78125 C 173.566406 21.207031 174.027344 20.734375 174.605469 20.734375 C 176.074219 20.734375 177.496094 20.851562 178.964844 21.085938 C 179.527344 21.175781 179.914062 21.710938 179.820312 22.28125 C 179.734375 22.851562 179.203125 23.238281 178.636719 23.148438 C 177.328125 22.9375 175.960938 22.832031 174.605469 22.832031 Z M 181.574219 23.8125 C 181.023438 23.648438 180.703125 23.074219 180.859375 22.515625 C 181.015625 21.960938 181.59375 21.636719 182.144531 21.796875 C 183.492188 22.179688 184.761719 22.65625 186.042969 23.25 C 186.566406 23.492188 186.792969 24.113281 186.558594 24.632812 C 186.316406 25.160156 185.703125 25.390625 185.1875 25.152344 C 184.035156 24.625 182.816406 24.167969 181.574219 23.8125 Z M 188.132812 26.765625 C 187.648438 26.457031 187.503906 25.8125 187.804688 25.324219 C 188.113281 24.835938 188.753906 24.691406 189.238281 24.996094 C 190.53125 25.820312 191.707031 26.714844 192.855469 27.75 C 193.28125 28.132812 193.3125 28.796875 192.933594 29.226562 C 192.550781 29.652344 191.902344 29.691406 191.476562 29.304688 C 190.464844 28.398438 189.289062 27.5 188.132812 26.765625 Z M 193.925781 31.847656 C 193.558594 31.40625 193.609375 30.742188 194.042969 30.371094 C 194.480469 29.996094 195.136719 30.050781 195.507812 30.492188 C 196.5 31.675781 197.332031 32.847656 198.125 34.183594 C 198.417969 34.679688 198.257812 35.320312 197.765625 35.617188 C 197.277344 35.910156 196.644531 35.75 196.347656 35.253906 C 195.65625 34.09375 194.800781 32.886719 193.925781 31.847656 Z M 197.949219 38.429688 C 197.726562 37.898438 197.972656 37.289062 198.5 37.0625 C 199.027344 36.839844 199.636719 37.089844 199.859375 37.617188 C 200.3125 38.707031 200.695312 39.804688 201.011719 40.929688 C 201.164062 41.484375 200.84375 42.0625 200.292969 42.21875 C 199.738281 42.378906 199.167969 42.054688 199.011719 41.492188 C 198.71875 40.441406 198.367188 39.421875 197.949219 38.429688 Z M 199.644531 44.398438 C 199.554688 43.828125 199.9375 43.292969 200.503906 43.199219 C 201.070312 43.109375 201.601562 43.5 201.6875 44.070312 C 201.914062 45.527344 202.03125 46.953125 202.03125 48.410156 C 202.03125 48.984375 201.5625 49.457031 200.992188 49.457031 C 200.417969 49.457031 199.953125 48.984375 199.953125 48.410156 C 199.953125 47.0625 199.847656 45.695312 199.644531 44.398438 Z M 148.160156 41.890625 C 152.53125 41.890625 156.066406 45.457031 156.066406 49.867188 C 156.066406 54.273438 152.53125 57.84375 148.160156 57.84375 C 143.792969 57.84375 140.253906 54.273438 140.253906 49.867188 C 140.253906 45.457031 143.792969 41.890625 148.160156 41.890625 Z M 152.28125 45.707031 C 150.003906 43.410156 146.316406 43.410156 144.035156 45.707031 C 141.757812 48.003906 141.757812 51.726562 144.035156 54.027344 C 146.316406 56.324219 150.003906 56.324219 152.28125 54.027344 C 154.5625 51.726562 154.5625 48.003906 152.28125 45.707031 Z M 147.105469 34.808594 L 149.167969 34.808594 C 150.347656 34.808594 151.308594 35.777344 151.308594 36.964844 L 151.316406 37.816406 L 152.878906 38.359375 C 153.375 38.566406 153.863281 38.808594 154.332031 39.085938 C 154.507812 39.1875 155.097656 37.867188 156.480469 37.867188 C 157.03125 37.867188 157.574219 38.078125 157.992188 38.496094 L 159.453125 39.972656 C 160.285156 40.8125 160.285156 42.179688 159.453125 43.019531 L 158.863281 43.621094 C 158.859375 43.632812 158.863281 43.648438 158.871094 43.664062 C 159.417969 44.605469 159.832031 45.621094 160.113281 46.671875 C 160.164062 46.871094 161.5 46.359375 162.480469 47.347656 C 162.871094 47.738281 163.109375 48.277344 163.109375 48.871094 L 163.109375 50.957031 C 163.109375 52.144531 162.148438 53.113281 160.972656 53.113281 L 160.972656 53.109375 L 160.167969 53.109375 L 160.167969 53.113281 L 160.113281 53.15625 L 159.589844 54.699219 L 159.59375 54.699219 C 159.386719 55.203125 159.148438 55.691406 158.871094 56.164062 L 158.882812 56.234375 C 159.515625 56.871094 160.074219 57.3125 160.074219 58.332031 L 160.078125 58.332031 C 160.078125 58.886719 159.867188 59.4375 159.453125 59.855469 L 157.992188 61.332031 C 157.160156 62.171875 155.804688 62.171875 154.972656 61.332031 L 154.371094 60.734375 C 154.363281 60.730469 154.351562 60.734375 154.332031 60.746094 C 153.398438 61.292969 152.386719 61.714844 151.351562 61.996094 C 151.152344 62.046875 151.65625 63.394531 150.679688 64.386719 C 150.292969 64.777344 149.757812 65.019531 149.167969 65.019531 L 147.105469 65.019531 C 145.925781 65.019531 144.964844 64.050781 144.964844 62.863281 L 144.957031 62.011719 C 144.953125 62.003906 144.941406 62 144.921875 61.996094 C 143.882812 61.714844 142.867188 61.289062 141.941406 60.746094 L 141.863281 60.757812 L 141.867188 60.757812 C 141.238281 61.394531 140.796875 61.960938 139.792969 61.960938 C 139.242188 61.960938 138.699219 61.75 138.28125 61.332031 L 136.820312 59.855469 C 135.988281 59.015625 135.988281 57.648438 136.820312 56.808594 L 137.410156 56.203125 C 137.414062 56.195312 137.410156 56.183594 137.398438 56.164062 C 136.855469 55.222656 136.4375 54.203125 136.160156 53.15625 C 136.109375 52.957031 134.773438 53.464844 133.789062 52.480469 C 133.402344 52.089844 133.164062 51.550781 133.164062 50.957031 L 133.164062 48.871094 C 133.164062 47.683594 134.125 46.714844 135.300781 46.714844 L 136.144531 46.707031 C 136.152344 46.703125 136.15625 46.691406 136.160156 46.671875 C 136.4375 45.625 136.863281 44.597656 137.398438 43.664062 L 137.386719 43.585938 L 137.386719 43.589844 C 136.757812 42.957031 136.195312 42.507812 136.195312 41.496094 L 136.199219 41.496094 C 136.199219 40.953125 136.410156 40.382812 136.820312 39.972656 L 138.28125 38.496094 C 139.113281 37.65625 140.46875 37.65625 141.300781 38.496094 L 141.898438 39.09375 C 141.910156 39.097656 141.921875 39.09375 141.9375 39.082031 C 142.867188 38.535156 143.886719 38.109375 144.921875 37.832031 L 144.964844 37.777344 L 144.96875 37.777344 L 144.96875 36.964844 L 144.964844 36.964844 C 144.964844 35.777344 145.925781 34.808594 147.105469 34.808594 Z M 149.167969 36.90625 L 147.0625 36.921875 C 147.054688 36.933594 147.046875 36.949219 147.046875 36.964844 L 147.042969 36.964844 L 147.042969 37.773438 L 147.046875 37.773438 C 147.046875 38.75 146.398438 39.601562 145.464844 39.855469 C 144.585938 40.09375 143.761719 40.433594 142.980469 40.890625 C 142.136719 41.382812 141.085938 41.238281 140.402344 40.550781 L 139.792969 39.960938 L 138.289062 41.449219 L 138.285156 41.449219 C 138.277344 41.464844 138.269531 41.476562 138.269531 41.492188 L 138.273438 41.492188 L 138.859375 42.109375 L 138.855469 42.109375 C 139.542969 42.804688 139.683594 43.855469 139.195312 44.710938 C 138.742188 45.5 138.402344 46.328125 138.167969 47.214844 C 137.917969 48.15625 137.074219 48.808594 136.109375 48.808594 L 135.261719 48.824219 L 135.246094 50.953125 C 135.246094 51.171875 136.441406 50.707031 137.402344 51.453125 C 137.769531 51.738281 138.042969 52.136719 138.167969 52.605469 C 138.402344 53.488281 138.75 54.332031 139.195312 55.109375 C 139.679688 55.960938 139.539062 57.023438 138.859375 57.710938 L 138.273438 58.328125 L 139.75 59.84375 L 139.835938 59.84375 L 140.402344 59.269531 C 141.078125 58.578125 142.140625 58.441406 142.984375 58.929688 C 143.765625 59.386719 144.585938 59.726562 145.464844 59.964844 C 146.398438 60.21875 147.046875 61.066406 147.046875 62.046875 L 147.0625 62.898438 L 149.171875 62.914062 C 149.390625 62.914062 148.925781 61.710938 149.667969 60.734375 C 149.949219 60.367188 150.34375 60.09375 150.8125 59.964844 C 151.6875 59.734375 152.519531 59.378906 153.292969 58.929688 C 154.136719 58.4375 155.1875 58.582031 155.871094 59.269531 L 156.480469 59.859375 L 157.984375 58.371094 C 157.992188 58.359375 158 58.34375 158 58.328125 L 158.003906 58.328125 L 157.414062 57.710938 C 156.730469 57.015625 156.589844 55.960938 157.078125 55.109375 C 157.300781 54.722656 157.5 54.316406 157.675781 53.890625 C 157.84375 53.484375 157.988281 53.054688 158.105469 52.605469 C 158.359375 51.664062 159.195312 51.007812 160.167969 51.007812 L 160.167969 51.011719 L 160.96875 51.011719 L 160.96875 51.007812 L 161.03125 50.949219 L 161.011719 48.824219 C 160.894531 48.707031 159.769531 49.0625 158.867188 48.363281 C 158.503906 48.082031 158.230469 47.683594 158.105469 47.210938 C 157.875 46.328125 157.523438 45.488281 157.078125 44.707031 C 156.589844 43.851562 156.730469 42.792969 157.414062 42.105469 L 158 41.488281 L 156.523438 39.972656 C 156.367188 39.816406 155.855469 40.996094 154.636719 41.160156 C 154.183594 41.21875 153.710938 41.132812 153.292969 40.886719 C 152.910156 40.664062 152.507812 40.464844 152.085938 40.285156 C 151.679688 40.113281 151.257812 39.96875 150.808594 39.851562 C 149.875 39.597656 149.226562 38.746094 149.226562 37.769531 L 149.207031 36.917969 C 149.199219 36.914062 149.1875 36.90625 149.167969 36.90625 Z M 182.496094 30.980469 L 185.984375 33.011719 L 187.351562 30.621094 C 187.488281 30.382812 187.402344 30.066406 187.160156 29.925781 L 187.167969 29.925781 L 184.554688 28.398438 C 184.320312 28.261719 184.003906 28.34375 183.863281 28.589844 Z M 187.289062 34.902344 L 183.023438 42.359375 L 186.039062 44.117188 C 190.511719 41.792969 196.03125 45.027344 195.882812 50.46875 C 195.859375 51.300781 194.996094 51.75 194.324219 51.359375 L 190.464844 49.113281 L 188.894531 50.03125 L 188.890625 51.855469 L 192.695312 54.070312 C 193.476562 54.492188 193.429688 55.480469 192.800781 55.890625 C 188.425781 58.730469 182.640625 55.710938 182.398438 50.484375 L 179.378906 48.726562 L 174.105469 57.945312 C 173.941406 58.230469 173.699219 58.351562 173.429688 58.476562 L 168.632812 60.789062 C 167.957031 61.113281 167.183594 60.625 167.152344 59.898438 L 166.902344 54.65625 C 166.878906 54.359375 166.878906 54.09375 167.03125 53.824219 L 172.304688 44.605469 L 168.464844 42.367188 C 163.992188 44.691406 158.472656 41.457031 158.621094 36.015625 C 158.644531 35.1875 159.511719 34.734375 160.175781 35.125 L 164.039062 37.375 L 165.601562 36.457031 L 165.609375 34.628906 L 161.777344 32.394531 C 161.058594 31.992188 161.054688 31.011719 161.703125 30.589844 C 166.078125 27.753906 171.863281 30.769531 172.109375 36 L 175.949219 38.234375 L 182.070312 27.539062 C 182.78125 26.300781 184.355469 25.871094 185.585938 26.589844 L 188.203125 28.113281 C 189.433594 28.828125 189.855469 30.414062 189.144531 31.65625 Z M 184.945312 34.820312 L 181.457031 32.789062 L 180.921875 33.726562 L 184.410156 35.757812 Z M 183.375 37.566406 L 179.886719 35.535156 L 169.554688 53.589844 C 170.902344 53.859375 172.140625 54.578125 173.042969 55.621094 Z M 171.542969 57.070312 C 170.90625 56.300781 170.003906 55.777344 169.019531 55.617188 L 169.144531 58.230469 Z M 181.984375 44.171875 L 180.414062 46.914062 L 183.949219 48.972656 C 184.304688 49.183594 184.496094 49.578125 184.46875 49.960938 C 184.363281 51.671875 185.292969 53.375 186.800781 54.253906 C 187.753906 54.808594 188.824219 54.996094 189.863281 54.832031 L 187.34375 53.363281 C 187.011719 53.167969 186.820312 52.816406 186.820312 52.457031 L 186.832031 49.429688 C 186.832031 49.042969 187.039062 48.703125 187.34375 48.527344 L 187.34375 48.523438 L 189.945312 46.996094 C 190.28125 46.796875 190.683594 46.816406 190.996094 47.003906 L 193.503906 48.460938 C 192.445312 45.695312 189.113281 44.570312 186.597656 46.203125 C 186.25 46.429688 185.820312 46.417969 185.488281 46.214844 Z M 173.339844 42.792969 L 174.910156 40.050781 L 170.550781 37.515625 C 170.195312 37.304688 170.003906 36.914062 170.035156 36.527344 C 170.140625 34.816406 169.207031 33.113281 167.699219 32.234375 C 166.753906 31.683594 165.675781 31.492188 164.640625 31.65625 L 167.160156 33.125 C 167.515625 33.328125 167.699219 33.710938 167.679688 34.089844 L 167.667969 37.0625 C 167.667969 37.449219 167.460938 37.785156 167.15625 37.964844 L 164.558594 39.484375 C 164.222656 39.683594 163.816406 39.667969 163.507812 39.480469 L 161 38.019531 C 162.058594 40.789062 165.386719 41.914062 167.902344 40.28125 C 168.253906 40.054688 168.6875 40.066406 169.015625 40.269531 Z M 165.738281 85.90625 L 159.96875 89.070312 C 159.058594 89.570312 157.921875 89.230469 157.425781 88.3125 L 147.851562 70.53125 C 147.359375 69.609375 147.695312 68.464844 148.605469 67.960938 L 154.300781 64.84375 C 155.246094 64.265625 156.476562 64.640625 156.960938 65.640625 L 157.890625 67.363281 C 158.066406 67.324219 158.242188 67.253906 158.421875 67.15625 C 158.800781 66.949219 159.1875 66.621094 159.582031 66.171875 C 160.566406 64.375 161.839844 63.105469 163.386719 62.359375 C 164.960938 61.601562 166.785156 61.402344 168.871094 61.765625 C 168.894531 61.769531 168.917969 61.777344 168.941406 61.78125 C 171.265625 62.363281 173.496094 62.523438 175.652344 62.265625 C 177.773438 62.011719 179.820312 61.347656 181.78125 60.277344 C 182.296875 59.972656 183.308594 59.835938 183.761719 59.859375 C 185.398438 59.953125 186.097656 61.25 186.113281 62.867188 C 186.117188 63.457031 186.042969 64.152344 185.882812 64.949219 C 189 62.71875 191.066406 60.5625 193.535156 57.238281 C 195.226562 54.964844 198.578125 55.371094 199.8125 57.722656 C 200.195312 58.449219 200.335938 59.300781 200.179688 60.171875 C 199.535156 63.699219 188.289062 78.683594 183.328125 79.59375 C 180.648438 80.085938 177.40625 79.808594 174.863281 79.382812 C 170.953125 78.722656 167.953125 79.445312 165.761719 81.976562 L 166.492188 83.339844 C 166.984375 84.261719 166.652344 85.410156 165.738281 85.90625 Z M 158.898438 69.234375 L 164.71875 80.046875 C 167.320312 77.410156 170.914062 76.566406 175.25 77.332031 C 177.480469 77.726562 180.621094 77.972656 182.964844 77.542969 C 186.785156 76.84375 197.589844 62.800781 198.140625 59.796875 C 198.457031 58.074219 196.242188 57.082031 195.191406 58.496094 C 193.515625 60.753906 192.03125 62.460938 190.402344 63.972656 C 188.796875 65.460938 187.050781 66.75 184.832031 68.179688 C 182.789062 70.382812 180.042969 70.453125 177.527344 70.523438 C 175.53125 70.574219 173.71875 70.625 173.113281 71.972656 C 172.878906 72.5 172.261719 72.734375 171.742188 72.5 C 171.222656 72.261719 170.984375 71.640625 171.21875 71.113281 C 172.363281 68.574219 174.792969 68.507812 177.480469 68.4375 C 179.535156 68.382812 181.777344 68.320312 183.242188 66.835938 C 183.785156 65.117188 184.050781 63.800781 184.042969 62.890625 C 184.039062 62.480469 183.984375 62.195312 183.875 62.042969 C 183.738281 61.851562 182.996094 62.019531 182.738281 62.132812 C 180.542969 63.328125 178.261719 64.066406 175.890625 64.351562 C 173.511719 64.632812 171.046875 64.460938 168.5 63.832031 C 166.859375 63.550781 165.453125 63.691406 164.285156 64.257812 C 163.109375 64.820312 162.136719 65.820312 161.359375 67.265625 C 161.3125 67.359375 161.25 67.4375 161.183594 67.511719 C 160.421875 68.324219 159.824219 68.875 158.898438 69.234375 Z M 159.152344 87.140625 L 164.578125 84.167969 L 155.195312 66.730469 L 149.765625 69.703125 Z M 159.152344 87.140625 " fill-opacity="1" fill-rule="nonzero"/></g><path fill="#2e2a2b" d="M 30.554688 26.824219 C 32.796875 26.824219 34.613281 25.007812 34.613281 22.769531 L 34.613281 8.128906 L 214.886719 8.128906 L 214.886719 135.664062 L 105.644531 135.664062 C 103.402344 135.664062 101.585938 137.476562 101.585938 139.71875 C 101.585938 141.957031 103.402344 143.773438 105.644531 143.773438 L 218.945312 143.773438 C 221.1875 143.773438 223.003906 141.957031 223.003906 139.71875 L 223.003906 4.074219 C 223.003906 1.832031 221.1875 0.0195312 218.945312 0.0195312 L 30.554688 0.0195312 C 28.316406 0.0195312 26.5 1.832031 26.5 4.074219 L 26.5 22.769531 C 26.5 25.007812 28.316406 26.824219 30.554688 26.824219 " fill-opacity="1" fill-rule="nonzero"/><path fill="#2e2a2b" d="M 30.554688 44.554688 C 40.90625 44.554688 49.328125 52.96875 49.328125 63.316406 C 49.328125 73.660156 40.90625 82.074219 30.554688 82.074219 C 20.207031 82.074219 11.785156 73.660156 11.785156 63.316406 C 11.785156 52.96875 20.207031 44.554688 30.554688 44.554688 Z M 30.554688 90.183594 C 45.382812 90.183594 57.441406 78.128906 57.441406 63.316406 C 57.441406 48.5 45.382812 36.445312 30.554688 36.445312 C 15.730469 36.445312 3.667969 48.5 3.667969 63.316406 C 3.667969 78.128906 15.730469 90.183594 30.554688 90.183594 " fill-opacity="1" fill-rule="nonzero"/><path fill="#2e2a2b" d="M 58.203125 201.855469 C 58.203125 212.199219 49.785156 220.617188 39.433594 220.617188 C 29.082031 220.617188 20.664062 212.199219 20.664062 201.855469 C 20.664062 191.511719 29.082031 183.097656 39.433594 183.097656 C 49.785156 183.097656 58.203125 191.511719 58.203125 201.855469 Z M 12.546875 201.855469 C 12.546875 216.671875 24.609375 228.726562 39.433594 228.726562 C 54.257812 228.726562 66.320312 216.671875 66.320312 201.855469 C 66.320312 187.039062 54.257812 174.988281 39.433594 174.988281 C 24.609375 174.988281 12.546875 187.039062 12.546875 201.855469 " fill-opacity="1" fill-rule="nonzero"/><g clip-path="url(#1c728e82a5)"><path fill="#2e2a2b" d="M 64.28125 233.726562 L 14.585938 233.726562 C 6.609375 233.726562 0.121094 240.210938 0.121094 248.183594 C 0.121094 250.421875 1.9375 252.238281 4.179688 252.238281 C 6.417969 252.238281 8.234375 250.421875 8.234375 248.183594 C 8.234375 244.683594 11.085938 241.835938 14.585938 241.835938 L 64.28125 241.835938 C 67.78125 241.835938 70.628906 244.683594 70.628906 248.183594 C 70.628906 250.421875 72.445312 252.238281 74.6875 252.238281 C 76.929688 252.238281 78.746094 250.421875 78.746094 248.183594 C 78.746094 240.210938 72.257812 233.726562 64.28125 233.726562 " fill-opacity="1" fill-rule="nonzero"/></g><path fill="#2e2a2b" d="M 143.382812 201.855469 C 143.382812 212.199219 134.960938 220.617188 124.613281 220.617188 C 114.261719 220.617188 105.839844 212.199219 105.839844 201.855469 C 105.839844 191.511719 114.261719 183.097656 124.613281 183.097656 C 134.960938 183.097656 143.382812 191.511719 143.382812 201.855469 Z M 97.726562 201.855469 C 97.726562 216.671875 109.785156 228.726562 124.613281 228.726562 C 139.4375 228.726562 151.5 216.671875 151.5 201.855469 C 151.5 187.039062 139.4375 174.988281 124.613281 174.988281 C 109.785156 174.988281 97.726562 187.039062 97.726562 201.855469 " fill-opacity="1" fill-rule="nonzero"/><g clip-path="url(#b3329c997f)"><path fill="#2e2a2b" d="M 149.460938 233.726562 L 99.765625 233.726562 C 91.789062 233.726562 85.300781 240.210938 85.300781 248.183594 C 85.300781 250.421875 87.117188 252.238281 89.355469 252.238281 C 91.597656 252.238281 93.414062 250.421875 93.414062 248.183594 C 93.414062 244.683594 96.261719 241.835938 99.765625 241.835938 L 149.460938 241.835938 C 152.960938 241.835938 155.808594 244.683594 155.808594 248.183594 C 155.808594 250.421875 157.625 252.238281 159.867188 252.238281 C 162.105469 252.238281 163.921875 250.421875 163.921875 248.183594 C 163.921875 240.210938 157.433594 233.726562 149.460938 233.726562 " fill-opacity="1" fill-rule="nonzero"/></g><path fill="#2e2a2b" d="M 228.839844 201.855469 C 228.839844 212.199219 220.417969 220.617188 210.066406 220.617188 C 199.71875 220.617188 191.296875 212.199219 191.296875 201.855469 C 191.296875 191.511719 199.71875 183.097656 210.066406 183.097656 C 220.417969 183.097656 228.839844 191.511719 228.839844 201.855469 Z M 183.179688 201.855469 C 183.179688 216.671875 195.242188 228.726562 210.066406 228.726562 C 224.894531 228.726562 236.953125 216.671875 236.953125 201.855469 C 236.953125 187.039062 224.894531 174.988281 210.066406 174.988281 C 195.242188 174.988281 183.179688 187.039062 183.179688 201.855469 " fill-opacity="1" fill-rule="nonzero"/><g clip-path="url(#cbaf8a13cc)"><path fill="#2e2a2b" d="M 234.914062 233.726562 L 185.21875 233.726562 C 177.242188 233.726562 170.753906 240.210938 170.753906 248.183594 C 170.753906 250.421875 172.570312 252.238281 174.8125 252.238281 C 177.050781 252.238281 178.871094 250.421875 178.871094 248.183594 C 178.871094 244.683594 181.71875 241.835938 185.21875 241.835938 L 234.914062 241.835938 C 238.414062 241.835938 241.265625 244.683594 241.265625 248.183594 C 241.265625 250.421875 243.082031 252.238281 245.320312 252.238281 C 247.5625 252.238281 249.378906 250.421875 249.378906 248.183594 C 249.378906 240.210938 242.890625 233.726562 234.914062 233.726562 " fill-opacity="1" fill-rule="nonzero"/></g><path fill="#2e2a2b" d="M 6.980469 183.097656 C 9.222656 183.097656 11.039062 181.28125 11.039062 179.042969 L 11.039062 120.035156 C 11.039062 109.277344 19.796875 100.527344 30.554688 100.527344 C 40.503906 100.527344 48.492188 107.460938 49.863281 116.765625 L 46.566406 117.859375 C 44.4375 118.5625 43.285156 120.855469 43.988281 122.980469 C 44.554688 124.683594 46.140625 125.765625 47.839844 125.765625 C 48.261719 125.765625 48.695312 125.699219 49.117188 125.558594 L 55.324219 123.503906 C 55.351562 123.496094 55.375 123.488281 55.402344 123.476562 L 83.523438 114.175781 C 83.523438 114.175781 83.527344 114.175781 83.53125 114.171875 C 84.140625 113.976562 84.78125 113.875 85.433594 113.875 C 88.832031 113.875 91.59375 116.636719 91.59375 120.035156 C 91.59375 122.515625 90.117188 124.742188 87.832031 125.710938 C 87.792969 125.726562 87.757812 125.742188 87.722656 125.757812 L 51.015625 137.820312 C 50.441406 137.992188 49.84375 138.078125 49.234375 138.078125 C 47.714844 138.078125 46.257812 137.523438 45.128906 136.511719 L 30.101562 122.769531 C 28.449219 121.257812 25.882812 121.371094 24.371094 123.023438 C 22.855469 124.675781 22.972656 127.238281 24.625 128.75 L 39.664062 142.507812 C 39.664062 142.507812 39.667969 142.511719 39.667969 142.511719 C 39.675781 142.519531 39.679688 142.523438 39.6875 142.53125 C 39.71875 142.558594 39.757812 142.589844 39.789062 142.617188 C 39.800781 142.625 39.808594 142.632812 39.816406 142.640625 C 42.421875 144.929688 45.757812 146.191406 49.234375 146.191406 C 50.652344 146.191406 52.054688 145.980469 53.402344 145.570312 C 53.421875 145.566406 53.441406 145.558594 53.460938 145.554688 C 53.46875 145.550781 53.476562 145.546875 53.488281 145.542969 L 90.261719 133.460938 C 90.410156 133.414062 90.554688 133.355469 90.695312 133.289062 C 90.796875 133.257812 90.894531 133.21875 90.992188 133.179688 C 96.289062 130.941406 99.710938 125.78125 99.710938 120.035156 C 99.710938 118.21875 99.367188 116.480469 98.746094 114.878906 L 132.773438 77.078125 C 134.273438 75.414062 134.136719 72.847656 132.46875 71.351562 C 130.804688 69.851562 128.238281 69.988281 126.738281 71.652344 L 93.675781 108.386719 C 91.34375 106.734375 88.5 105.765625 85.433594 105.765625 C 83.914062 105.765625 82.414062 106.003906 80.980469 106.472656 C 80.972656 106.476562 80.964844 106.480469 80.953125 106.484375 L 57.648438 114.191406 C 56.589844 108.917969 53.984375 104.101562 50.058594 100.269531 C 44.871094 95.207031 37.945312 92.417969 30.554688 92.417969 C 15.320312 92.417969 2.925781 104.808594 2.925781 120.035156 L 2.925781 179.042969 C 2.925781 181.28125 4.742188 183.097656 6.980469 183.097656 " fill-opacity="1" fill-rule="nonzero"/><path fill="#2e2a2b" d="M 58.1875 164.582031 L 58.1875 155.621094 C 58.1875 153.382812 56.371094 151.566406 54.128906 151.566406 C 51.890625 151.566406 50.074219 153.382812 50.074219 155.621094 L 50.074219 164.582031 C 50.074219 166.820312 51.890625 168.636719 54.128906 168.636719 C 56.371094 168.636719 58.1875 166.820312 58.1875 164.582031 " fill-opacity="1" fill-rule="nonzero"/></svg>